<?xml version="1.0" encoding="utf-8"?>
<!-- Generator: Adobe Illustrator 27.1.1, SVG Export Plug-In . SVG Version: 6.00 Build 0)  -->
<svg version="1.1" id="Capa_1" xmlns="http://www.w3.org/2000/svg" xmlns:xlink="http://www.w3.org/1999/xlink" x="0px" y="0px"
	 viewBox="0 0 512 512" style="enable-background:new 0 0 512 512;" xml:space="preserve">
<style type="text/css">
	.st0{fill:#E41E2E;}
</style>
<g>
	<path class="st0" d="M492.3,31.5H194.6h-16.2h-33.1h-11.9H19.7C8.9,31.5,0,40.4,0,51.3v329.5c0,10.9,8.9,19.7,19.7,19.7h194.4h4.2
		l-1.3,4l-10.8,33.3l-0.7,2.1h-2.2H146c-2.5,0-4.6,2-4.6,4.6v31.4c0,2.5,2,4.6,4.6,4.6h220c2.5,0,4.6-2,4.6-4.6v-31.4
		c0-2.5-2-4.6-4.6-4.6h-57.4h-2.2l-0.7-2.1L295,404.5l-1.3-4h4.2h37.7H350h33.1h13.6h95.6c10.9,0,19.7-8.9,19.7-19.7V51.3
		C512,40.4,503.1,31.5,492.3,31.5z M303.4,449L303.4,449h0.1h54.9h3v3v16.3v3h-3H153.6h-3v-3V452v-3h3h54.9h0.1h0.1
		c0.1,0,0.2,0,0.2,0l0,0h94.2C303.2,449,303.3,449,303.4,449z M295.6,435.9l1.3,4h-4.2h-73.4h-4.2l1.3-4l10.8-33.3l0.7-2.1h2.2h51.8
		h2.2l0.7,2.1L295.6,435.9z M502.9,380.8c0,5.9-4.8,10.6-10.6,10.6h-95.6h-13.6H350h-14.5h-48.1h-62.9H19.7
		c-5.9,0-10.6-4.8-10.6-10.6V51.3c0-5.9,4.8-10.6,10.6-10.6h113.7h11.9h33.1h16.2h297.7c5.9,0,10.6,4.8,10.6,10.6V380.8z"/>
	<path class="st0" d="M476,62.8H36c-2.5,0-4.6,2.4-4.6,5.4v295.7c0,3,2,5.4,4.6,5.4h251.4h0.1l0,0H476c2.5,0,4.6-2.4,4.6-5.4v-95.6
		v-6.6v-36.8v-24.7v-132C480.6,65.2,478.5,62.8,476,62.8z M471.5,73.6v3v123.5v24.7v36.8v6.6v87.2v3v1.8h-431v-1.8v-3V76.6v-3v-1.8
		h430.9v1.8H471.5z"/>
</g>
<g>
	<g>
		<g>
			<path class="st0" d="M411.3,211.1l8.5-8.5v12.1v7.7h6v-27c0-0.8-0.3-1.6-0.9-2.1c-0.6-0.6-1.3-0.9-2.1-0.9h-5l0,0h-22v6h7.7h12.1
				l-8.5,8.5l-20.8,20.6l-3.5,3.5l-3.5-3.5L369,217.2c-0.6-0.6-1.3-0.9-2.1-0.9c-0.8,0-1.6,0.3-2.1,0.9l-26.5,26.3l-8.5,8.5v-12.1
				v-44.7v-16v-1v-10h-6v10v1v16v64c0,1.7,1.3,3,3,3h99v-6h-79.7H334l8.5-8.5l20.7-20.7l3.5-3.5l3.5,3.5l10.3,10.3
				c0.6,0.6,1.3,0.9,2.1,0.9c0.8,0,1.6-0.3,2.1-0.9L411.3,211.1z"/>
		</g>
		<g id="g2479">
			<g id="g2485" transform="translate(10,300)">
				<path class="st0" d="M226.3-28.2h-19.4c-1.2,0-2.2-1-2.2-2.2v-8.1c-4.3-1.1-8.4-2.8-12.3-5.1l-5.8,5.8c-0.9,0.9-2.3,0.9-3.1,0
					l-13.7-13.8c-0.4-0.4-0.6-1-0.6-1.6s0.2-1.1,0.6-1.6l5.8-5.8c-2.3-3.8-4-8-5.1-12.3h-8.2c-1.2,0-2.2-1-2.2-2.2v-19.4
					c0-1.2,1-2.2,2.2-2.2h8.1c1.1-4.3,2.8-8.5,5.1-12.3l-5.7-5.7c-0.4-0.4-0.6-1-0.6-1.6s0.2-1.1,0.6-1.6l13.7-13.7
					c0.9-0.9,2.3-0.9,3.1,0l5.7,5.7c3.9-2.3,8-4,12.3-5.1v-8.1c0-1.2,1-2.2,2.2-2.2h19.5c1.2,0,2.2,1,2.2,2.2v8.1
					c4.3,1.1,8.5,2.8,12.3,5.1l5.7-5.7c0.9-0.9,2.3-0.9,3.1,0l13.7,13.7c0.4,0.4,0.6,1,0.6,1.6s-0.2,1.1-0.6,1.6l-5.7,5.7
					c2.3,3.9,4,8,5.1,12.3h8.1c1.2,0,2.2,1,2.2,2.2v19.4c0,1.2-1,2.2-2.2,2.2h-8.1c-1.1,4.3-2.8,8.5-5.1,12.3l5.7,5.7
					c0.9,0.9,0.9,2.3,0,3.1l-13.6,13.9c-0.9,0.9-2.3,0.9-3.1,0l-5.7-5.7c-3.9,2.3-8,4-12.3,5.1v8.1
					C228.5-29.2,227.6-28.2,226.3-28.2z M209.1-32.6h15v-7.7c0-1,0.7-1.9,1.7-2.2c5-1.1,9.8-3.1,14.1-5.8c0.9-0.6,2-0.4,2.8,0.3
					l5.4,5.4l10.7-10.6l-5.4-5.4c-0.7-0.7-0.9-1.9-0.3-2.8c2.8-4.3,4.8-9.1,5.9-14.1c0.2-1,1.1-1.7,2.2-1.7h7.6v-15h-7.6
					c-1,0-1.9-0.7-2.2-1.7c-1.1-5-3.1-9.8-5.9-14.2c-0.6-0.9-0.4-2,0.3-2.8l5.4-5.4l-10.6-10.6l-5.4,5.4c-0.7,0.7-1.9,0.9-2.8,0.3
					c-4.3-2.8-9.1-4.8-14.2-5.9c-1-0.2-1.7-1.1-1.7-2.2v-7.6h-15v7.6c0,1-0.7,1.9-1.7,2.2c-5,1.1-9.8,3.1-14.1,5.9
					c-0.9,0.6-2,0.4-2.8-0.3l-5.4-5.4l-10.6,10.7l5.4,5.4c0.7,0.7,0.9,1.9,0.3,2.8c-2.8,4.3-4.7,9.1-5.8,14.1
					c-0.2,1-1.1,1.7-2.2,1.7h-7.7v15h7.7c1,0,1.9,0.7,2.2,1.7c1.1,5,3.1,9.8,5.8,14.1c0.6,0.9,0.4,2-0.3,2.8l-5.4,5.4l10.6,10.6
					l5.4-5.4c0.7-0.7,1.9-0.9,2.8-0.3c4.3,2.8,9.1,4.8,14.1,5.8c1,0.2,1.7,1.1,1.7,2.2V-32.6z"/>
			</g>
			<g id="g2489" transform="translate(275.987,216)">
				<path class="st0" d="M-38,28c-5,0-9.1-4.1-9.1-9.1V8.1c0-1.2,1-2.2,2.2-2.2s2.2,1,2.2,2.2v10.7c0,2.6,2.1,4.7,4.7,4.7
					c1.9,0,3.6-1.1,4.3-2.8l0.6-1.4c0.5-1.1,1.8-1.6,2.9-1.1s1.6,1.8,1.1,2.9l-0.6,1.4C-31.1,25.9-34.4,28-38,28z"/>
			</g>
			<g id="g2493" transform="translate(275.987,255.873)">
				<path class="st0" d="M-44.9-38.4c-0.1,0-0.1,0-0.2,0c-0.1,0-0.1,0-0.2,0c-0.1,0-0.3-0.1-0.4-0.1c-0.1-0.1-0.3-0.1-0.4-0.2
					c-0.1,0-0.1-0.1-0.2-0.1c-0.1,0-0.1-0.1-0.2-0.1c-0.4-0.4-0.6-1-0.6-1.6c0-0.1,0-0.1,0-0.2c0-0.1,0-0.1,0-0.2
					c0-0.1,0.1-0.3,0.1-0.4c0.1-0.1,0.1-0.3,0.2-0.4c0-0.1,0.1-0.1,0.1-0.2c0-0.1,0.1-0.1,0.1-0.2c0.1-0.1,0.1-0.1,0.2-0.1
					c0.1,0,0.1-0.1,0.2-0.1c0.1-0.1,0.2-0.1,0.4-0.2c0.1-0.1,0.3-0.1,0.4-0.1c0.1,0,0.1,0,0.2,0c0.1,0,0.3,0,0.4,0
					c0.1,0,0.1,0,0.2,0c0.1,0,0.3,0.1,0.4,0.1c0.1,0.1,0.3,0.1,0.4,0.2c0.1,0,0.1,0.1,0.2,0.1c0.1,0,0.1,0.1,0.2,0.1
					c0.1,0,0.1,0.1,0.1,0.2c0,0.1,0.1,0.1,0.1,0.2c0.1,0.1,0.1,0.2,0.2,0.4c0.1,0.1,0.1,0.3,0.1,0.4c0,0.1,0,0.1,0,0.2
					c0,0.1,0,0.1,0,0.2s0,0.1,0,0.2c0,0.1,0,0.1,0,0.2c0,0.1-0.1,0.3-0.1,0.4c-0.1,0.1-0.1,0.3-0.2,0.4c0,0.1-0.1,0.1-0.1,0.2
					c0,0.1-0.1,0.1-0.1,0.2c-0.1,0.1-0.1,0.1-0.2,0.1c-0.1,0-0.1,0.1-0.2,0.1c-0.1,0.1-0.2,0.1-0.4,0.2c-0.1,0.1-0.3,0.1-0.4,0.1
					c-0.1,0-0.1,0-0.2,0C-44.8-38.4-44.9-38.4-44.9-38.4z"/>
			</g>
			<g id="g2497" transform="translate(338.4098,342.8344)">
				<path class="st0" d="M-107.4-134.2c-1.2,0-2.2-1-2.2-2.2v-10.8c0-5,4.1-9.1,9.1-9.1s9.1,4.1,9.1,9.1v0.5c0,1.2-1,2.2-2.2,2.2
					s-2.2-1-2.2-2.2v-0.5c0-2.6-2.1-4.7-4.7-4.7c-2.6,0-4.7,2.1-4.7,4.7v10.8C-105.2-135.2-106.2-134.2-107.4-134.2z"/>
			</g>
			<g id="g2501" transform="translate(338.3936,344.0428)">
				<path class="st0" d="M-86.7-137.9c-0.5,0-1.1-0.2-1.5-0.6c-0.9-0.8-1-2.2-0.1-3.1c0.5-0.6,0.8-1.3,0.8-2.1
					c0-1.7-1.4-3.1-3.1-3.1c-0.6,0-1.2,0.2-1.7,0.5c-1,0.7-2.4,0.4-3.1-0.6c-0.7-1-0.4-2.4,0.6-3.1c1.2-0.8,2.7-1.2,4.1-1.2
					c4.2,0,7.5,3.4,7.5,7.5c0,1.9-0.7,3.7-2,5.1C-85.5-138.2-86.1-137.9-86.7-137.9z"/>
			</g>
			<g id="g2505" transform="translate(323.628,168.9251)">
				<path class="st0" d="M-76.8,69.8c-2.5,0-4.8-0.9-6.7-2.5c-0.9-0.8-1-2.2-0.2-3.1s2.2-1,3.1-0.2c1.1,0.9,2.4,1.4,3.8,1.4
					c3.2,0,5.8-2.6,5.8-5.8c0-1.3-0.4-2.6-1.3-3.6c-0.5-0.7-0.6-1.5-0.3-2.3c0.4-0.8,1.1-1.3,1.9-1.3h0.7c0,0,0,0,0.1,0
					c1.8,0,3.3-1.5,3.3-3.3v-8.9c0-1.8-1.5-3.3-3.3-3.3c-1,0-1.9,0.4-2.5,1.2c-0.8,0.9-2.2,1-3.1,0.2c-0.9-0.8-1-2.2-0.2-3.1
					c1.5-1.7,3.6-2.7,5.9-2.7c4.3,0,7.7,3.5,7.7,7.7v8.9c0,3.3-2.1,6.1-5,7.2c0.4,1.1,0.5,2.2,0.5,3.3
					C-66.6,65.2-71.2,69.8-76.8,69.8z"/>
			</g>
			<path class="st0" d="M224.4,195.7c0-5-4.1-9.1-9.1-9.1c-4,0-7.5,2.6-8.7,6.3c-0.4-0.1-0.8-0.1-1.2-0.1c-4.2,0-7.5,3.4-7.5,7.5
				c0,0.4,0,0.8,0.1,1.1c-3.6,0.7-6.3,3.8-6.3,7.6v8.9c0,3.3,2.1,6.1,5,7.2c-0.4,1.1-0.5,2.2-0.5,3.3c0,5.6,4.6,10.2,10.2,10.2
				c0.2,0,0.4,0,0.5,0c1.5,3.2,4.7,5.3,8.3,5.3c5,0,9.1-4.1,9.1-9.1v-5.5l0,0v-33.6H224.4z M220,234.9c0,2.6-2.1,4.7-4.7,4.7
				c-1.6,0-3.1-0.8-4-2.1c0.6-0.4,1.3-0.8,1.8-1.3c0.9-0.8,1-2.2,0.2-3.1s-2.2-1-3.1-0.2c-1.1,0.9-2.4,1.4-3.8,1.4
				c-3.2,0-5.8-2.6-5.8-5.8c0-1.3,0.4-2.6,1.3-3.6c0.5-0.7,0.6-1.5,0.3-2.3c-0.4-0.8-1.1-1.3-1.9-1.3h-0.7c0,0,0,0-0.1,0
				c-1.8,0-3.3-1.5-3.3-3.3v-8.9c0-1.8,1.5-3.3,3.3-3.3c1,0,1.9,0.4,2.5,1.2c0.8,0.9,2.2,1,3.1,0.2s1-2.2,0.2-3.1
				c-0.7-0.8-1.5-1.4-2.4-1.9c-0.4-0.5-0.6-1.2-0.6-1.8c0-1.7,1.4-3.1,3.1-3.1c0.4,0,0.8,0.1,1.1,0.2c0.4,0.6,1.1,0.9,1.8,0.9
				c1.2,0,2.2-1,2.2-2.2V196c0-0.1,0-0.1,0-0.2v-0.1c0-2.6,2.1-4.7,4.7-4.7c2.6,0,4.7,2.1,4.7,4.7v33.6l0,0v5.6H220z"/>
		</g>
	</g>
	<g>
		<path class="st0" d="M115.4,126.4H95.2c-5,0-9,4-9,9v20.3c0,5,4.1,9,9,9h20.2c5,0,9-4,9-9v-20.3
			C124.5,130.4,120.4,126.4,115.4,126.4z M117.5,137.4v16.3v4h-4H97.2h-4v-4v-16.3v-4h4h16.3h4V137.4z"/>
		<path class="st0" d="M115.4,196H95.2c-5,0-9,4.1-9,9.1v20.2c0,5,4.1,9.1,9,9.1h20.2c5,0,9-4.1,9-9.1v-20.2
			C124.5,200.1,120.4,196,115.4,196z M117.5,207v16.4v4h-4H97.2h-4v-4V207v-4h4h16.3h4V207z"/>
		<path class="st0" d="M115.4,265.7H95.2c-5,0-9,4.1-9,9.1V295c0,5,4.1,9.1,9,9.1h20.2c5,0,9-4.1,9-9.1v-20.2
			C124.5,269.8,120.4,265.7,115.4,265.7z M117.5,276.7v16.4v4h-4H97.2h-4v-4v-16.4v-4h4h16.3h4V276.7z"/>
	</g>
</g>
</svg>
